<svg width="1600" height="1000" viewBox="0 0 1600 1000" fill="none" xmlns="http://www.w3.org/2000/svg">
  <rect width="1600" height="1000" fill="#F6ECDD"/>
  <ellipse cx="388" cy="218" rx="250" ry="146" fill="#FFF7EE"/>
  <ellipse cx="1232" cy="770" rx="314" ry="186" fill="#EAF2E7"/>
  <path d="M496 728H1122" stroke="#9E6A1F" stroke-width="12" stroke-linecap="round"/>
  <path d="M602 370H1008V642C1008 704 958 754 896 754H714C652 754 602 704 602 642V370Z" fill="#FFF9F2" stroke="#B68341" stroke-width="8"/>
  <path d="M1010 432H1098C1154 432 1200 478 1200 534C1200 590 1154 636 1098 636H1010" stroke="#B68341" stroke-width="8" stroke-linecap="round"/>
  <path d="M652 420H960V610C960 650 928 682 888 682H724C684 682 652 650 652 610V420Z" fill="#EAD8BF"/>
  <ellipse cx="806" cy="420" rx="154" ry="36" fill="#7D4B18"/>
  <path d="M698 312C698 262 718 226 754 198" stroke="#A36500" stroke-width="10" stroke-linecap="round"/>
  <path d="M808 280C808 232 824 196 856 168" stroke="#A36500" stroke-width="10" stroke-linecap="round"/>
  <path d="M914 312C914 260 934 226 972 196" stroke="#A36500" stroke-width="10" stroke-linecap="round"/>
  <path d="M914 280C1034 286 1128 312 1216 372" stroke="#D5842B" stroke-width="10" stroke-linecap="round" stroke-dasharray="2 22"/>
  <path d="M950 360C1102 372 1224 428 1320 522" stroke="#A36500" stroke-width="10" stroke-linecap="round" stroke-dasharray="2 22"/>
  <path d="M982 452C1120 474 1228 540 1308 640" stroke="#7F9D7B" stroke-width="10" stroke-linecap="round" stroke-dasharray="2 22"/>
  <circle cx="1214" cy="372" r="62" fill="#FFF9F2" stroke="#D0B08A" stroke-width="6"/>
  <circle cx="1316" cy="522" r="62" fill="#FFF9F2" stroke="#D0B08A" stroke-width="6"/>
  <circle cx="1302" cy="644" r="68" fill="#DFE9D1" stroke="#7F9D7B" stroke-width="6"/>
  <circle cx="1214" cy="372" r="18" fill="#D5842B"/>
  <circle cx="1316" cy="522" r="18" fill="#A36500"/>
  <circle cx="1302" cy="644" r="18" fill="#7F9D7B"/>
  <path d="M340 628C392 560 454 526 526 528C600 530 660 568 714 642" stroke="#A36500" stroke-width="10" stroke-linecap="round"/>
  <path d="M270 706C316 648 370 620 432 622C488 624 536 650 580 700" stroke="#7F9D7B" stroke-width="8" stroke-linecap="round"/>
  <path d="M1044 816C1160 840 1268 842 1370 816" stroke="#D0B08A" stroke-width="6" stroke-linecap="round"/>
</svg>
